# xmcd
#
# Track frame offsets: 
#        150
#        17490
#        32002
#        46590
#        62722
#        76347
#        88225
#        106587
#        121775
#        136945
#        151235
#        166572
#        181317
#        197960
#        212637
#        224220
#        242275
#        255237
#        266997
#        278125
#
# Disc length: 3894 seconds
#
# Revision: 1
# Processed by: cddbd v1.5.2PL0 Copyright (c) Steve Scherf et al.
# Submitted via: ExactAudioCopy v1.0b3
#
DISCID=060f3414
DTITLE=Genival Santos - 20 Super Sucessos
DYEAR=2007
DGENRE=Brega
TTITLE0=Dupla Traição
TTITLE1=Não Vou Dizer Adeus
TTITLE2=Cada Coração Sabe o que Quer
TTITLE3=Rosa Amarela
TTITLE4=Se Errar Outra Vez
TTITLE5=Eu Não Sou Brinquedo
TTITLE6=Sendo Assim
TTITLE7=Se For Preciso
TTITLE8=Eu Te Peguei no Fraga
TTITLE9=Meu Coração Está em Greve
TTITLE10=Será Que Mereço Esse Castigo
TTITLE11=Livro Aberto
TTITLE12=Preciso Parar Pra Pensar
TTITLE13=Meu Coração Pede Paz
TTITLE14=Minha Sede de Amor
TTITLE15=Final de Semana ( A 120 Por Hora )
TTITLE16=Loucura ou Paixão
TTITLE17=O Que é que Você veio Fazer Aqui
TTITLE18=Sangue do Meu Sangue
TTITLE19=Peço Bis
EXTD=
EXTT0=
EXTT1=
EXTT2=
EXTT3=
EXTT4=
EXTT5=
EXTT6=
EXTT7=
EXTT8=
EXTT9=
EXTT10=
EXTT11=
EXTT12=
EXTT13=
EXTT14=
EXTT15=
EXTT16=
EXTT17=
EXTT18=
EXTT19=
PLAYORDER=
